<svg width="32" height="32" viewBox="0 0 32 32" fill="none" xmlns="http://www.w3.org/2000/svg">
<path d="M16.639 2.31689H18.539V5.09189C21.6291 4.59758 24.7918 4.83075 27.776 5.77289C28.887 6.15189 30.096 7.01689 29.988 8.34089C30.0007 13.2316 30.0007 18.1246 29.988 23.0199C30.099 24.3599 28.858 25.2199 27.735 25.5939C24.7603 26.5205 21.6117 26.7471 18.535 26.2559V29.6829H16.558C11.712 28.7999 6.853 27.9899 2 27.1369V4.86889C6.878 4.01589 11.763 3.18589 16.638 2.31689" fill="#84629E"/>
<path d="M18.541 6.05906C21.3955 5.59459 24.3166 5.75322 27.104 6.52406C27.864 6.80706 28.883 7.14806 29.055 8.05506C28.928 8.79606 28.155 9.13106 27.544 9.39806C24.635 10.3127 21.5503 10.5231 18.544 10.0121V6.05906" fill="white"/>
<path d="M25.0581 11.011C26.4915 10.9008 27.8696 10.411 29.0511 9.59204C28.9811 10.96 29.1591 12.344 28.9511 13.7C28.3196 14.3025 27.5232 14.7035 26.6631 14.852C23.994 15.4383 21.2412 15.5399 18.5361 15.152V11.023C20.7001 11.2972 22.8903 11.2928 25.0531 11.01" fill="white"/>
<path d="M8.49971 10.683C9.24071 10.629 9.97971 10.583 10.7237 10.521C11.7897 14.085 12.8017 17.668 13.8547 21.235C13.1197 21.187 12.3847 21.135 11.6547 21.066C11.4607 20.266 11.2547 19.475 11.0437 18.683C10.0667 18.683 9.08971 18.648 8.11671 18.6C7.92871 19.354 7.73771 20.106 7.54371 20.856C6.91971 20.808 6.29804 20.7633 5.67871 20.722C6.60771 17.371 7.57871 14.033 8.49771 10.682" fill="white"/>
<path d="M8.51074 16.882C8.83174 15.393 9.31074 13.939 9.52274 12.427C9.80874 13.935 10.2517 15.405 10.6137 16.895C9.91041 16.895 9.21041 16.8907 8.51374 16.882" fill="#84629E"/>
<path d="M25.077 16.1001C26.504 15.9898 27.8758 15.501 29.051 14.6841C28.987 16.0491 29.151 17.4271 28.962 18.7841C28.3388 19.3898 27.5467 19.7925 26.69 19.9391C24.0139 20.5284 21.2537 20.6317 18.541 20.2441V16.1141C20.7113 16.3904 22.9081 16.385 25.077 16.0981" fill="white"/>
<path d="M25.0654 21.1899C26.4966 21.0807 27.8729 20.5919 29.0524 19.7739C28.9854 21.1389 29.1574 22.5229 28.9524 23.8739C28.0524 24.8539 26.6234 25.0349 25.3854 25.2869C23.1121 25.6325 20.8002 25.6409 18.5244 25.3119C18.5464 23.9409 18.5374 22.5719 18.5374 21.2009C20.7033 21.4772 22.8959 21.4718 25.0604 21.1849" fill="white"/>
</svg>
