<svg width="32" height="32" viewBox="0 0 32 32" fill="none" xmlns="http://www.w3.org/2000/svg">
<path d="M25.3182 2H5.68181C3.64833 2 2 3.64833 2 5.68181V25.3181C2 27.3515 3.64833 29 5.68181 29H25.3182C27.3515 29 29 27.3515 29 25.3181V5.68181C29 3.64836 27.3515 2 25.3182 2ZM6.9092 25.9318C6.9092 26.2707 6.63428 26.5454 6.29546 26.5454H5.06819C4.72933 26.5454 4.45469 26.2706 4.45469 25.9318V24.7044C4.45469 24.3654 4.72936 24.0908 5.06819 24.0908H6.29546C6.63431 24.0908 6.9092 24.3655 6.9092 24.7044V25.9318ZM6.9092 21.0228C6.9092 21.3615 6.63428 21.6363 6.29546 21.6363H5.06819C4.72933 21.6363 4.45469 21.3615 4.45469 21.0228V19.7954C4.45469 19.4564 4.72936 19.1816 5.06819 19.1816H6.29546C6.63431 19.1816 6.9092 19.4564 6.9092 19.7954V21.0228ZM6.9092 16.1137C6.9092 16.4524 6.6344 16.7272 6.29546 16.7272H5.06819C4.72933 16.7272 4.45469 16.4524 4.45469 16.1137V14.8863C4.45469 14.5474 4.72936 14.2727 5.06819 14.2727H6.29546C6.63443 14.2727 6.9092 14.5475 6.9092 14.8863V16.1137ZM6.9092 11.2045C6.9092 11.5435 6.63428 11.8182 6.29546 11.8182H5.06819C4.72933 11.8182 4.45469 11.5434 4.45469 11.2045V9.97735C4.45469 9.63837 4.72936 9.36373 5.06819 9.36373H6.29546C6.63431 9.36373 6.9092 9.63841 6.9092 9.97735V11.2045ZM6.9092 6.29546C6.9092 6.63443 6.63428 6.90907 6.29546 6.90907H5.06819C4.72933 6.90907 4.45469 6.6344 4.45469 6.29546V5.06831C4.45469 4.72933 4.72936 4.45469 5.06819 4.45469H6.29546C6.63431 4.45469 6.9092 4.72936 6.9092 5.06831V6.29546ZM19.9913 16.0932C19.5332 16.3858 13.2774 19.8446 12.7355 20.1703C12.3387 20.409 11.8183 20.1453 11.8183 19.6021C11.8183 19.0509 11.8183 11.8312 11.8183 11.4509C11.8183 10.9578 12.2892 10.5909 12.7545 10.8793C13.1276 11.1103 19.355 14.5456 19.9912 14.9444C20.409 15.2062 20.402 15.8309 19.9913 16.0932ZM26.5453 25.9318C26.5453 26.2707 26.2705 26.5454 25.9317 26.5454H24.7045C24.3656 26.5454 24.0909 26.2706 24.0909 25.9318V24.7044C24.0909 24.3654 24.3656 24.0908 24.7045 24.0908H25.9317C26.2706 24.0908 26.5453 24.3655 26.5453 24.7044V25.9318ZM26.5453 21.0228C26.5453 21.3615 26.2705 21.6363 25.9317 21.6363H24.7045C24.3656 21.6363 24.0909 21.3615 24.0909 21.0228V19.7954C24.0909 19.4564 24.3656 19.1816 24.7045 19.1816H25.9317C26.2706 19.1816 26.5453 19.4564 26.5453 19.7954V21.0228ZM26.5453 16.1137C26.5453 16.4524 26.2707 16.7272 25.9317 16.7272H24.7045C24.3655 16.7272 24.0909 16.4524 24.0909 16.1137V14.8863C24.0909 14.5474 24.3655 14.2727 24.7045 14.2727H25.9317C26.2707 14.2727 26.5453 14.5475 26.5453 14.8863V16.1137ZM26.5453 11.2045C26.5453 11.5435 26.2705 11.8182 25.9317 11.8182H24.7045C24.3656 11.8182 24.0909 11.5434 24.0909 11.2045V9.97735C24.0909 9.63837 24.3656 9.36373 24.7045 9.36373H25.9317C26.2706 9.36373 26.5453 9.63841 26.5453 9.97735V11.2045ZM26.5453 6.29546C26.5453 6.63443 26.2705 6.90907 25.9317 6.90907H24.7045C24.3656 6.90907 24.0909 6.6344 24.0909 6.29546V5.06831C24.0909 4.72933 24.3656 4.45469 24.7045 4.45469H25.9317C26.2706 4.45469 26.5453 4.72936 26.5453 5.06831V6.29546Z" fill="#6063B1"/>
</svg>
