<svg width="32" height="32" viewBox="0 0 32 32" fill="none" xmlns="http://www.w3.org/2000/svg">
<path d="M18 5.5H29V26H18V5.5Z" fill="white"/>
<path d="M29.972 6.21611C30.042 5.5998 29.622 5.05353 29.006 4.96948C28.922 4.95548 28.824 4.95548 28.74 4.96948C25.352 4.91346 21.936 4.96948 18.534 4.96948V2H16.742C11.814 2.85443 6.914 3.73687 2 4.61931V27.4087C6.858 28.2771 11.716 29.1036 16.56 30H18.534V26.7504H28.082C28.628 26.7224 29.23 26.7644 29.692 26.4142C30.056 25.8259 29.972 25.0975 30 24.4392C29.958 18.3882 30.028 12.2951 29.972 6.21611V6.21611ZM29.034 25.7839H18.534V5.90795H29.034V25.7839Z" fill="#4A81AD"/>
<path d="M8.66176 17.835C8.69118 17.2864 8.82353 16.8082 9.05882 16.3862C9.29412 15.9642 9.72059 15.5422 10.3382 15.1061C10.8235 14.7404 11.1618 14.4731 11.3382 14.2903C11.5147 14.1074 11.6618 13.9105 11.7647 13.6995C11.8676 13.4885 11.9118 13.2634 11.9118 13.0243C11.9118 12.5038 11.75 12.11 11.4265 11.8427C11.1029 11.5754 10.6471 11.4488 10.0882 11.4488C9.52941 11.4488 9.07353 11.6036 8.72059 11.913C8.36765 12.2225 8.16176 12.6867 8.11765 13.2916L6 13.2212C6.13235 12.1803 6.54412 11.3785 7.26471 10.8299C7.98529 10.2813 8.92647 10 10.0882 10C11.3235 10 12.2794 10.2532 12.9706 10.7596C13.6618 11.266 14 11.9834 14 12.9258C14 13.4463 13.8676 13.9246 13.6029 14.3606C13.3382 14.8107 12.8824 15.2749 12.2059 15.7532L11.6176 16.1752C10.9118 16.6957 10.5441 17.2442 10.5294 17.8491H8.66176V17.835ZM8.51471 20.9859V19.1854H10.8088V21H8.51471V20.9859Z" fill="#FCFCFC"/>
</svg>
