<svg width="32" height="32" viewBox="0 0 32 32" fill="none" xmlns="http://www.w3.org/2000/svg">
<rect x="18" y="5" width="11" height="22" fill="white"/>
<path d="M30 5.85V5.5C30 4.975 29.3 4.45 28.775 4.45H18.625V2H16.7L2 4.625V27.375C6.9 28.25 11.625 29.125 16.525 30H18.45V27.375H28.075C28.6 27.375 29.3 27.375 29.65 27.025C30 26.5 30 25.8 30 25.1V5.85V5.85ZM10.925 16.7C10.225 17.05 9.525 17.05 8.65 17.05V20.55L6.9 20.375V10.575C8.475 10.575 10.4 9.875 11.8 11.1C13.2 12.85 12.85 15.825 10.925 16.7ZM28.95 26.5H18.45V5.5H28.95V26.5Z" fill="#A33639"/>
<path d="M28 24.8394V23.4516H18.5856V24.8394H28ZM19.955 21.1965H28V22.4108H19.955V21.1965ZM19.955 16.8598H28V18.074H19.955V16.8598ZM19.955 19.1149H28V20.3292H19.955V19.1149ZM23.3784 10.0945C23.2072 10.7883 22.8649 11.6557 22.5226 12.3496C20.8108 13.0434 20.8108 13.5638 20.8108 13.7373C20.8108 13.9108 20.982 14.0843 21.1532 14.2577H21.4955C22.009 14.2577 22.5226 13.7373 23.0361 12.6965C23.7208 12.3496 24.4054 12.1761 25.0901 12.0026C25.4325 12.3496 25.946 12.523 26.4595 12.523C26.8018 12.523 27.3153 12.523 27.3153 11.8292C27.3153 11.6557 27.1442 11.1353 26.4595 11.1353C26.1171 11.1353 25.7748 11.1353 25.4325 11.3087C24.9189 10.9618 24.5766 10.4414 24.4054 9.92099C24.7478 8.88017 24.7478 8.18629 24.5766 8.01282C24.4054 7.83936 24.2343 7.83936 24.0631 7.83936C23.8919 7.83936 23.5496 8.01282 23.5496 8.18629C22.6937 8.7067 23.2072 9.74752 23.3784 10.0945ZM21.3244 13.7373C21.4955 13.5638 21.6667 13.3904 22.009 13.2169C21.8379 13.3904 21.4955 13.5638 21.3244 13.7373ZM26.1171 11.8292C26.4595 11.8292 26.6307 12.0026 26.6307 12.0026H26.2883C26.1171 12.0026 25.946 12.0026 25.7748 11.8292H26.1171ZM24.2343 11.6557C23.8919 11.8292 23.5496 11.8292 23.2072 12.0026C23.3784 11.6557 23.5496 11.3087 23.7208 10.7883C23.8919 11.1353 24.0631 11.4822 24.2343 11.6557ZM23.5496 8.35976C23.7208 8.7067 23.7208 9.05364 23.7208 9.22711C23.5496 8.88017 23.5496 8.7067 23.5496 8.35976ZM8.76172 12.0026V15.472C9.27523 15.472 10.3694 15.6455 10.7117 14.9516C11.0541 14.2577 11.0541 13.2169 10.7117 12.523C10.3694 12.0026 9.4464 12.0026 8.76172 12.0026Z" fill="#A33639"/>
</svg>
