<svg width="32" height="32" viewBox="0 0 32 32" fill="none" xmlns="http://www.w3.org/2000/svg">
<path d="M18.536 2.3208V5.1838C21.936 5.2028 25.893 5.1488 29.29 5.1998C29.932 5.1998 29.96 5.7678 29.968 6.2638C30.022 12.2058 29.955 18.3188 30 24.2638C29.988 24.4978 29.994 25.3638 29.987 25.6098C29.965 26.4328 29.553 26.4688 28.73 26.4938C28.598 26.4938 28.21 26.4998 28.082 26.5058C24.901 26.4898 21.72 26.4968 18.536 26.4968V29.6788L2 27.1338V4.8728L18.536 2.3218" fill="#D36222"/>
<path d="M18.5362 6.13794H29.0362V25.5379H18.5362V22.9999H26.1702V21.7249H18.5362V20.1349H26.1702V18.8629H18.5392C18.5392 18.2389 18.5392 17.6159 18.5332 16.9929C19.1578 17.2183 19.8247 17.3015 20.4855 17.2367C21.1463 17.1718 21.7844 16.9604 22.3532 16.6179C22.933 16.2369 23.4133 15.7229 23.7541 15.1186C24.0949 14.5142 24.2862 13.8372 24.3122 13.1439C22.9122 13.1339 21.5192 13.1379 20.1262 13.1379C20.1262 11.7539 20.1422 10.3709 20.0972 8.98994C19.5752 9.08994 19.0542 9.19994 18.5352 9.31094V6.13894" fill="white"/>
<path d="M20.7667 8.32422C21.8514 8.39219 22.8743 8.8525 23.6446 9.61926C24.4148 10.386 24.8798 11.4068 24.9527 12.4912C23.5527 12.5072 22.1597 12.5012 20.7637 12.5012V8.32422" fill="#D36222"/>
<path d="M7.10006 10.726C8.82706 10.809 10.9201 10.042 12.3521 11.337C13.7231 13.001 13.3601 16.061 11.3281 17.056C10.5892 17.3486 9.78827 17.449 9.00006 17.348C9.00006 18.592 8.99406 19.836 9.00006 21.079C8.37006 21.025 7.73706 20.971 7.10706 20.92C7.07806 17.52 7.07206 14.12 7.10706 10.72" fill="white"/>
<path d="M8.99297 12.4462C9.61997 12.4172 10.393 12.3032 10.819 12.8912C10.9893 13.2114 11.0818 13.5672 11.0889 13.9298C11.096 14.2924 11.0176 14.6515 10.86 14.9782C10.497 15.6332 9.67697 15.5702 9.04397 15.6462C8.97697 14.5802 8.98397 13.5152 8.99297 12.4462" fill="#D36222"/>
</svg>
