<svg width="32" height="32" viewBox="0 0 32 32" fill="none" xmlns="http://www.w3.org/2000/svg">
<rect x="18" y="5" width="11" height="21" fill="white"/>
<path fill-rule="evenodd" clip-rule="evenodd" d="M28.781 4.387H18.651V2L2 4.57V27.097L18.651 29.965V26.427H28.781C29.0878 26.4425 29.3883 26.336 29.6167 26.1306C29.8451 25.9252 29.9829 25.6377 30 25.331V5.482C29.9827 5.17546 29.8448 4.88823 29.6164 4.68306C29.388 4.47789 29.0876 4.37145 28.781 4.387V4.387ZM28.941 25.513H18.617L18.6 23.624H21.087V21.424H18.581L18.569 20.124H21.087V17.924H18.55L18.538 16.624H21.087V14.424H18.53V13.124H21.087V10.924H18.53V9.624H21.087V7.424H18.53V5.424H28.941V25.513Z" fill="#20AEAE"/>
<path d="M22.4873 7.43896H26.8103V9.63896H22.4873V7.43896Z" fill="#20AEAE"/>
<path d="M22.4873 10.9399H26.8103V13.1399H22.4873V10.9399Z" fill="#20AEAE"/>
<path d="M22.4873 14.4409H26.8103V16.6409H22.4873V14.4409Z" fill="#20AEAE"/>
<path d="M22.4873 17.9419H26.8103V20.1419H22.4873V17.9419Z" fill="#20AEAE"/>
<path d="M22.4873 21.4431H26.8103V23.6431H22.4873V21.4431Z" fill="#20AEAE"/>
<path d="M6.834 13.6092L7.758 13.5812V12.3778L5 12.5037V13.6652L5.938 13.6372V18.4088L6.834 18.4508V13.6092Z" fill="white"/>
<path d="M10.152 16.3098L10.908 18.6607L11.944 18.7026L10.782 15.2044L11.804 12.1679L10.978 12.2099L10.334 14.1829L9.718 12.2659L8.696 12.3218L9.718 15.2324L8.556 18.5347L9.396 18.5767L10.152 16.3098Z" fill="white"/>
<path d="M14.562 13.3993L15.5 13.3713V12L12.742 12.1259V13.4413L13.666 13.4133V18.8146L14.562 18.8566V13.3993Z" fill="white"/>
</svg>
