<svg width="32" height="32" viewBox="0 0 32 32" fill="none" xmlns="http://www.w3.org/2000/svg">
<path d="M18.536 2.32302V4.86802C21.936 4.88702 25.656 4.83302 29.057 4.88702C29.177 4.86616 29.3001 4.87357 29.4167 4.90864C29.5333 4.94372 29.6401 5.00551 29.7287 5.08909C29.8172 5.17267 29.885 5.27575 29.9267 5.39014C29.9685 5.50453 29.9829 5.62706 29.969 5.74802C30.023 12.014 29.956 18.638 30.001 24.905C29.981 25.305 30.01 26.023 29.948 26.422C29.869 26.931 29.642 27.029 29.131 27.098C28.845 27.137 28.367 27.132 28.086 27.145C25.294 27.131 22.504 27.134 19.712 27.135H18.537V29.682L2 27.133V4.87302L18.536 2.32202" fill="#283C82"/>
<path d="M18.5361 5.82202H29.0361V26.18H18.5361V23.635H26.8061V22.363H18.5361V20.773H26.8061V19.5H18.5361V17.91H26.8061V16.637H18.5361V15.047H26.8061V13.774H18.5361V12.184H26.8061V10.911H18.5361V9.32102H26.8061V8.04802H18.5361V5.82202Z" fill="white"/>
<path d="M8.57261 11.4429C9.17261 11.4079 9.78161 11.3829 10.3856 11.3509C10.8086 13.4979 11.2416 15.6419 11.6996 17.7799C12.0586 15.5719 12.4566 13.3709 12.8416 11.1669C13.4771 11.1441 14.1122 11.1108 14.7466 11.0669C14.0276 14.1489 13.3976 17.2569 12.6126 20.3209C12.0816 20.5979 11.2866 20.3079 10.6566 20.3529C10.2336 18.2469 9.74061 16.1529 9.36161 14.0389C8.98961 16.0999 8.50561 18.1329 8.07961 20.1749C7.46894 20.1429 6.85594 20.1059 6.24061 20.0639C5.71261 17.2639 5.09261 14.4849 4.59961 11.6789C5.14361 11.6539 5.69061 11.6309 6.23461 11.6119C6.56261 13.6379 6.93461 15.6549 7.22061 17.6839C7.66861 15.6039 8.12761 13.5229 8.57261 11.4429" fill="white"/>
</svg>
