<svg width="32" height="32" viewBox="0 0 32 32" fill="none" xmlns="http://www.w3.org/2000/svg">
<rect x="18" y="5" width="11" height="21" fill="white"/>
<path fill-rule="evenodd" clip-rule="evenodd" d="M28.781 4.387H18.651V2L2 4.57V27.097L18.651 29.965V26.427H28.781C29.0878 26.4425 29.3883 26.336 29.6167 26.1306C29.8451 25.9252 29.9829 25.6377 30 25.331V5.482C29.9827 5.17546 29.8448 4.88823 29.6164 4.68306C29.388 4.47789 29.0876 4.37145 28.781 4.387V4.387ZM28.941 25.513H18.617L18.6 23.624H21.087V21.424H18.581L18.569 20.124H21.087V17.924H18.55L18.538 16.624H21.087V14.424H18.53V13.124H21.087V10.924H18.53V9.624H21.087V7.424H18.53V5.424H28.941V25.513Z" fill="#20744A"/>
<path d="M22.4873 7.43896H26.8103V9.63896H22.4873V7.43896Z" fill="#20744A"/>
<path d="M22.4873 10.9399H26.8103V13.1399H22.4873V10.9399Z" fill="#20744A"/>
<path d="M22.4873 14.4409H26.8103V16.6409H22.4873V14.4409Z" fill="#20744A"/>
<path d="M22.4873 17.9419H26.8103V20.1419H22.4873V17.9419Z" fill="#20744A"/>
<path d="M22.4873 21.4431H26.8103V23.6431H22.4873V21.4431Z" fill="#20744A"/>
<path fill-rule="evenodd" clip-rule="evenodd" d="M6.34709 10.6729L8.49309 10.5499L9.84209 14.2589L11.4361 10.3969L13.5821 10.2739L10.9761 15.5399L13.5821 20.8189L11.3131 20.6659L9.78109 16.6419L8.24809 20.5129L6.16309 20.3289L8.58509 15.6659L6.34709 10.6729V10.6729Z" fill="white"/>
</svg>
