<svg width="32" height="32" viewBox="0 0 32 32" fill="none" xmlns="http://www.w3.org/2000/svg">
<path d="M18.536 2.32302V4.86802C21.936 4.88702 25.656 4.83302 29.057 4.88702C29.177 4.86616 29.3001 4.87357 29.4167 4.90864C29.5333 4.94372 29.6401 5.00551 29.7287 5.08909C29.8172 5.17267 29.885 5.27575 29.9267 5.39014C29.9685 5.50453 29.9829 5.62706 29.969 5.74802C30.023 12.014 29.956 18.638 30.001 24.905C29.981 25.305 30.01 26.023 29.948 26.422C29.869 26.931 29.642 27.029 29.131 27.098C28.845 27.137 28.367 27.132 28.086 27.145C25.294 27.131 22.504 27.134 19.712 27.135H18.537V29.682L2 27.133V4.87302L18.536 2.32202" fill="#7991E3"/>
<path d="M18.5361 5.82202H29.0361V26.18H18.5361V23.635H26.8061V22.363H18.5361V20.773H26.8061V19.5H18.5361V17.91H26.8061V16.637H18.5361V15.047H26.8061V13.774H18.5361V12.184H26.8061V10.911H18.5361V9.32102H26.8061V8.04802H18.5361V5.82202Z" fill="white"/>
<path fill-rule="evenodd" clip-rule="evenodd" d="M13 3.17188V6.18658H10.7322V7.17522H13V9.6468H10.7322V11.118H13V13.5896H10.7322V15.0608H13V22.9466C12.9971 23.2286 12.8905 23.4978 12.7036 23.6953C12.5166 23.8927 12.2646 24.0023 12.0027 24H8.99727C8.73542 24.0023 8.48338 23.8927 8.29644 23.6953C8.10949 23.4978 8.00288 23.2286 8 22.9466V17.0586H10.2842V15.5874H8.01639V13.107H10.2842V11.6358H8.01639V9.16426H10.2842V7.69307H8.01639V5.69226H10.2842V3.58984L13 3.17188ZM12 19H9V21H12V19Z" fill="white"/>
</svg>
